<svg width="510" height="225" viewBox="0 0 510 225" fill="none" xmlns="http://www.w3.org/2000/svg">
<g filter="url(#filter0_i_987_1194)">
<rect x="60" y="46.5312" width="389.775" height="104.471" rx="16" fill="#EEFBFF"/>
<rect x="60" y="46.5312" width="389.775" height="104.471" rx="16" fill="url(#paint0_radial_987_1194)"/>
<rect x="60" y="46.5312" width="389.775" height="104.471" rx="16" fill="url(#paint1_radial_987_1194)"/>
<rect x="60" y="46.5312" width="389.775" height="104.471" rx="16" fill="url(#paint2_radial_987_1194)"/>
<rect x="60" y="46.5312" width="389.775" height="104.471" rx="16" fill="url(#paint3_radial_987_1194)" fill-opacity="0.2"/>
</g>
<g filter="url(#filter1_ddi_987_1194)">
<rect x="60" y="40" width="389.775" height="104.471" rx="16" fill="#EEFBFF"/>
<rect x="60" y="40" width="389.775" height="104.471" rx="16" fill="url(#paint4_radial_987_1194)"/>
<rect x="60" y="40" width="389.775" height="104.471" rx="16" fill="url(#paint5_radial_987_1194)"/>
<rect x="60" y="40" width="389.775" height="104.471" rx="16" fill="url(#paint6_radial_987_1194)"/>
<rect x="60" y="40" width="389.775" height="104.471" rx="16" fill="url(#paint7_radial_987_1194)" fill-opacity="0.2"/>
</g>
<path d="M137.692 109.016V75.4156H150.076C151.916 75.4156 153.572 75.8796 155.044 76.8076C156.532 77.7356 157.716 78.9756 158.596 80.5276C159.476 82.0636 159.916 83.7596 159.916 85.6156C159.916 87.5036 159.468 89.2236 158.572 90.7756C157.676 92.3116 156.476 93.5356 154.972 94.4476C153.484 95.3596 151.852 95.8156 150.076 95.8156H144.316V109.016H137.692ZM144.316 89.1916H149.332C150.068 89.1916 150.732 89.0156 151.324 88.6636C151.916 88.2956 152.388 87.8076 152.74 87.1996C153.108 86.5756 153.292 85.8876 153.292 85.1356C153.292 84.3996 153.108 83.7276 152.74 83.1196C152.388 82.4956 151.916 81.9996 151.324 81.6316C150.732 81.2636 150.068 81.0796 149.332 81.0796H144.316V89.1916ZM164.177 109.016V75.4156H170.801V102.392H184.337V109.016H164.177ZM199.69 75.4156H207.226L219.418 109.016H212.386L210.37 103.448H196.546L194.53 109.016H187.498L199.69 75.4156ZM198.97 96.8236H207.946L203.434 84.5116L198.97 96.8236ZM238.065 75.4156H245.889L234.273 93.8716V109.016H227.649V93.8716L216.033 75.4156H223.857L230.961 86.6716L238.065 75.4156ZM261.723 109.016V75.4156H268.875L281.979 97.0396V75.4156H288.603V109.016H281.451L268.347 87.3916V109.016H261.723ZM309.948 109.64C307.676 109.64 305.54 109.192 303.54 108.296C301.54 107.384 299.78 106.128 298.26 104.528C296.74 102.928 295.548 101.08 294.684 98.9836C293.82 96.8716 293.388 94.6156 293.388 92.2156C293.388 89.8156 293.82 87.5676 294.684 85.4716C295.548 83.3596 296.74 81.5036 298.26 79.9036C299.78 78.3036 301.54 77.0556 303.54 76.1596C305.54 75.2476 307.676 74.7916 309.948 74.7916C312.236 74.7916 314.38 75.2476 316.38 76.1596C318.38 77.0556 320.14 78.3036 321.66 79.9036C323.18 81.5036 324.364 83.3596 325.212 85.4716C326.076 87.5676 326.508 89.8156 326.508 92.2156C326.508 94.6156 326.076 96.8716 325.212 98.9836C324.364 101.08 323.18 102.928 321.66 104.528C320.14 106.128 318.38 107.384 316.38 108.296C314.38 109.192 312.236 109.64 309.948 109.64ZM309.948 103.016C311.308 103.016 312.588 102.736 313.788 102.176C314.988 101.6 316.044 100.816 316.956 99.8236C317.868 98.8316 318.58 97.6876 319.092 96.3916C319.62 95.0956 319.884 93.7036 319.884 92.2156C319.884 90.7276 319.62 89.3356 319.092 88.0396C318.58 86.7276 317.868 85.5836 316.956 84.6076C316.044 83.6156 314.988 82.8396 313.788 82.2796C312.588 81.7036 311.308 81.4156 309.948 81.4156C308.588 81.4156 307.308 81.7036 306.108 82.2796C304.908 82.8396 303.852 83.6156 302.94 84.6076C302.028 85.5996 301.308 86.7436 300.78 88.0396C300.268 89.3356 300.012 90.7276 300.012 92.2156C300.012 93.7036 300.268 95.1036 300.78 96.4156C301.308 97.7116 302.028 98.8556 302.94 99.8476C303.852 100.824 304.908 101.6 306.108 102.176C307.308 102.736 308.588 103.016 309.948 103.016ZM337.472 109.016L328.88 75.4156H335.72L341.192 96.8956L346.664 75.4156H352.736L358.208 96.8956L363.68 75.4156H370.52L361.976 109.016H354.488L349.712 90.3436L344.96 109.016H337.472Z" fill="white"/>
<path d="M163.888 178.3H166.019L171.364 193H169.495L168.403 189.997H161.504L160.423 193H158.543L163.888 178.3ZM162.155 188.233H167.752L164.948 180.557L162.155 188.233ZM173.175 193V182.5H174.939V183.812C175.31 183.322 175.779 182.934 176.346 182.647C176.913 182.353 177.529 182.206 178.194 182.206C178.6 182.206 178.992 182.258 179.37 182.363L178.656 184.127C178.369 184.036 178.089 183.991 177.816 183.991C177.291 183.991 176.808 184.12 176.367 184.379C175.933 184.631 175.587 184.974 175.328 185.408C175.069 185.842 174.939 186.325 174.939 186.857V193H173.175ZM184.747 193.273C183.781 193.273 182.899 193.024 182.101 192.527C181.31 192.03 180.677 191.365 180.201 190.532C179.732 189.692 179.497 188.765 179.497 187.75C179.497 186.98 179.634 186.262 179.907 185.597C180.18 184.925 180.554 184.337 181.03 183.833C181.513 183.322 182.073 182.923 182.71 182.636C183.347 182.349 184.026 182.206 184.747 182.206C185.538 182.206 186.263 182.367 186.921 182.689C187.586 183.004 188.153 183.445 188.622 184.012C189.098 184.579 189.451 185.237 189.682 185.986C189.92 186.735 190.008 187.536 189.945 188.39H181.377C181.461 188.985 181.657 189.517 181.965 189.986C182.273 190.448 182.665 190.816 183.141 191.089C183.624 191.362 184.159 191.502 184.747 191.509C185.377 191.509 185.948 191.348 186.459 191.026C186.97 190.697 187.383 190.249 187.698 189.682L189.493 190.102C189.073 191.033 188.44 191.796 187.593 192.391C186.746 192.979 185.797 193.273 184.747 193.273ZM181.324 187.004H188.17C188.114 186.416 187.925 185.881 187.603 185.398C187.281 184.908 186.872 184.516 186.375 184.222C185.878 183.928 185.335 183.781 184.747 183.781C184.159 183.781 183.62 183.924 183.13 184.211C182.64 184.498 182.234 184.887 181.912 185.377C181.597 185.86 181.401 186.402 181.324 187.004ZM204.095 182.5H205.964L200.221 198.25H198.352L200.252 193L196.483 182.5H198.415L201.134 190.574L204.095 182.5ZM211.941 193.273C210.975 193.273 210.093 193.024 209.295 192.527C208.504 192.03 207.87 191.365 207.394 190.532C206.925 189.692 206.691 188.765 206.691 187.75C206.691 186.98 206.827 186.262 207.1 185.597C207.373 184.925 207.748 184.337 208.224 183.833C208.707 183.322 209.267 182.923 209.904 182.636C210.541 182.349 211.22 182.206 211.941 182.206C212.907 182.206 213.785 182.454 214.576 182.951C215.374 183.448 216.008 184.117 216.477 184.957C216.953 185.797 217.191 186.728 217.191 187.75C217.191 188.513 217.054 189.227 216.781 189.892C216.508 190.557 216.13 191.145 215.647 191.656C215.171 192.16 214.615 192.555 213.978 192.842C213.348 193.13 212.669 193.273 211.941 193.273ZM211.941 191.509C212.599 191.509 213.19 191.337 213.715 190.994C214.247 190.644 214.664 190.186 214.965 189.619C215.273 189.045 215.427 188.422 215.427 187.75C215.427 187.064 215.269 186.434 214.954 185.86C214.646 185.286 214.23 184.827 213.705 184.484C213.18 184.141 212.592 183.97 211.941 183.97C211.283 183.97 210.691 184.145 210.166 184.495C209.641 184.838 209.225 185.296 208.917 185.87C208.609 186.444 208.455 187.071 208.455 187.75C208.455 188.45 208.612 189.087 208.927 189.661C209.242 190.228 209.666 190.679 210.198 191.015C210.73 191.344 211.311 191.509 211.941 191.509ZM218.364 189.01V182.5H220.128V188.621C220.128 189.153 220.258 189.636 220.517 190.07C220.776 190.504 221.122 190.851 221.556 191.11C221.997 191.362 222.48 191.488 223.005 191.488C223.537 191.488 224.017 191.362 224.444 191.11C224.878 190.851 225.224 190.504 225.483 190.07C225.742 189.636 225.872 189.153 225.872 188.621V182.5H227.636L227.646 193H225.882L225.872 191.666C225.501 192.156 225.032 192.548 224.465 192.842C223.898 193.13 223.285 193.273 222.627 193.273C221.843 193.273 221.126 193.084 220.475 192.706C219.831 192.321 219.316 191.806 218.931 191.162C218.553 190.518 218.364 189.801 218.364 189.01ZM238.004 193.2C237.437 193.179 236.884 193.074 236.345 192.884C235.813 192.688 235.344 192.426 234.938 192.097C234.539 191.761 234.248 191.376 234.066 190.942L235.578 190.291C235.683 190.529 235.872 190.753 236.145 190.963C236.418 191.173 236.733 191.341 237.09 191.467C237.447 191.593 237.808 191.656 238.172 191.656C238.557 191.656 238.917 191.596 239.253 191.477C239.589 191.358 239.862 191.183 240.072 190.952C240.289 190.714 240.398 190.431 240.398 190.102C240.398 189.752 240.279 189.479 240.041 189.283C239.81 189.08 239.516 188.922 239.159 188.81C238.809 188.691 238.452 188.579 238.088 188.474C237.367 188.292 236.723 188.075 236.156 187.823C235.589 187.564 235.141 187.239 234.812 186.847C234.49 186.448 234.329 185.94 234.329 185.324C234.329 184.673 234.507 184.11 234.864 183.634C235.228 183.158 235.704 182.79 236.292 182.531C236.88 182.272 237.51 182.143 238.182 182.143C239.029 182.143 239.803 182.325 240.503 182.689C241.203 183.053 241.724 183.546 242.067 184.169L240.65 184.999C240.531 184.747 240.349 184.526 240.104 184.337C239.859 184.141 239.579 183.987 239.264 183.875C238.949 183.763 238.627 183.704 238.298 183.697C237.892 183.683 237.51 183.735 237.153 183.854C236.803 183.973 236.52 184.155 236.303 184.4C236.093 184.638 235.988 184.936 235.988 185.293C235.988 185.643 236.1 185.909 236.324 186.091C236.555 186.273 236.852 186.42 237.216 186.532C237.587 186.637 237.99 186.759 238.424 186.899C239.061 187.102 239.656 187.337 240.209 187.603C240.762 187.869 241.206 188.201 241.542 188.6C241.885 188.999 242.053 189.493 242.046 190.081C242.046 190.725 241.854 191.288 241.469 191.771C241.084 192.247 240.583 192.611 239.967 192.863C239.358 193.116 238.704 193.228 238.004 193.2ZM249.284 184.264H246.9L246.89 193H245.126L245.136 184.264H243.33V182.5H245.136L245.126 179.203H246.89L246.9 182.5H249.284V184.264ZM251.064 182.5H252.828V193H251.064V182.5ZM251.967 180.788C251.687 180.788 251.452 180.697 251.263 180.515C251.074 180.333 250.98 180.106 250.98 179.833C250.98 179.56 251.074 179.332 251.263 179.15C251.452 178.968 251.683 178.877 251.956 178.877C252.229 178.877 252.46 178.968 252.649 179.15C252.838 179.332 252.933 179.56 252.933 179.833C252.933 180.106 252.838 180.333 252.649 180.515C252.467 180.697 252.24 180.788 251.967 180.788ZM255.411 193V177.25H257.175V193H255.411ZM259.698 193V177.25H261.462V193H259.698ZM274.468 184.264H272.084L272.074 193H270.31L270.32 184.264H268.514V182.5H270.32L270.31 179.203H272.074L272.084 182.5H274.468V184.264ZM285.632 186.469V193H283.868V186.857C283.868 186.325 283.738 185.842 283.479 185.408C283.22 184.974 282.874 184.631 282.44 184.379C282.006 184.12 281.523 183.991 280.991 183.991C280.466 183.991 279.983 184.12 279.542 184.379C279.108 184.631 278.761 184.974 278.502 185.408C278.243 185.842 278.114 186.325 278.114 186.857V193H276.35V177.25H278.114V183.812C278.485 183.322 278.954 182.934 279.521 182.647C280.088 182.353 280.704 182.206 281.369 182.206C282.153 182.206 282.867 182.398 283.511 182.783C284.162 183.161 284.676 183.672 285.054 184.316C285.439 184.96 285.632 185.678 285.632 186.469ZM287.732 182.5H289.496V193H287.732V182.5ZM288.635 180.788C288.355 180.788 288.12 180.697 287.931 180.515C287.742 180.333 287.648 180.106 287.648 179.833C287.648 179.56 287.742 179.332 287.931 179.15C288.12 178.968 288.351 178.877 288.624 178.877C288.897 178.877 289.128 178.968 289.317 179.15C289.506 179.332 289.601 179.56 289.601 179.833C289.601 180.106 289.506 180.333 289.317 180.515C289.135 180.697 288.908 180.788 288.635 180.788ZM301.238 186.469V193H299.474V186.857C299.474 186.325 299.345 185.842 299.086 185.408C298.827 184.974 298.48 184.631 298.046 184.379C297.612 184.12 297.129 183.991 296.597 183.991C296.072 183.991 295.589 184.12 295.148 184.379C294.714 184.631 294.368 184.974 294.109 185.408C293.85 185.842 293.72 186.325 293.72 186.857V193H291.956V182.5H293.72V183.812C294.091 183.322 294.56 182.934 295.127 182.647C295.694 182.353 296.31 182.206 296.975 182.206C297.759 182.206 298.473 182.398 299.117 182.783C299.768 183.161 300.283 183.672 300.661 184.316C301.046 184.96 301.238 185.678 301.238 186.469ZM311.977 193H309.95L307.157 188.18L305.225 190.49V193H303.461V177.25H305.225V187.75L309.625 182.5H311.924L308.354 186.752L311.977 193ZM313.838 182.5H315.602V193H313.838V182.5ZM314.741 180.788C314.461 180.788 314.227 180.697 314.038 180.515C313.849 180.333 313.754 180.106 313.754 179.833C313.754 179.56 313.849 179.332 314.038 179.15C314.227 178.968 314.458 178.877 314.731 178.877C315.004 178.877 315.235 178.968 315.424 179.15C315.613 179.332 315.707 179.56 315.707 179.833C315.707 180.106 315.613 180.333 315.424 180.515C315.242 180.697 315.014 180.788 314.741 180.788ZM327.345 186.469V193H325.581V186.857C325.581 186.325 325.451 185.842 325.192 185.408C324.933 184.974 324.587 184.631 324.153 184.379C323.719 184.12 323.236 183.991 322.704 183.991C322.179 183.991 321.696 184.12 321.255 184.379C320.821 184.631 320.474 184.974 320.215 185.408C319.956 185.842 319.827 186.325 319.827 186.857V193H318.063V182.5H319.827V183.812C320.198 183.322 320.667 182.934 321.234 182.647C321.801 182.353 322.417 182.206 323.082 182.206C323.866 182.206 324.58 182.398 325.224 182.783C325.875 183.161 326.389 183.672 326.767 184.316C327.152 184.96 327.345 185.678 327.345 186.469ZM337.44 182.5H339.204V193.336C339.204 194.029 339.053 194.673 338.752 195.268C338.458 195.87 338.059 196.392 337.555 196.833C337.051 197.281 336.477 197.627 335.833 197.872C335.189 198.124 334.517 198.25 333.817 198.25C333.089 198.25 332.386 198.086 331.707 197.757C331.028 197.435 330.433 197.001 329.922 196.455C329.418 195.916 329.054 195.31 328.83 194.638L330.447 193.903C330.58 194.386 330.818 194.82 331.161 195.205C331.511 195.597 331.917 195.905 332.379 196.129C332.848 196.36 333.327 196.476 333.817 196.476C334.279 196.476 334.724 196.395 335.151 196.234C335.585 196.073 335.973 195.849 336.316 195.562C336.666 195.282 336.939 194.95 337.135 194.565C337.338 194.187 337.44 193.777 337.44 193.336V191.246C337.083 191.848 336.61 192.338 336.022 192.716C335.441 193.088 334.762 193.273 333.985 193.273C333.243 193.273 332.547 193.13 331.896 192.842C331.245 192.555 330.674 192.16 330.184 191.656C329.694 191.145 329.309 190.557 329.029 189.892C328.749 189.227 328.609 188.513 328.609 187.75C328.609 186.987 328.749 186.273 329.029 185.608C329.309 184.936 329.694 184.348 330.184 183.844C330.674 183.333 331.245 182.934 331.896 182.647C332.547 182.36 333.243 182.216 333.985 182.216C334.762 182.216 335.441 182.402 336.022 182.773C336.61 183.144 337.083 183.634 337.44 184.243V182.5ZM333.996 191.561C334.675 191.561 335.263 191.386 335.76 191.036C336.264 190.686 336.652 190.221 336.925 189.64C337.198 189.059 337.335 188.429 337.335 187.75C337.335 187.05 337.195 186.413 336.915 185.839C336.642 185.258 336.253 184.796 335.749 184.453C335.252 184.103 334.668 183.928 333.996 183.928C333.338 183.928 332.736 184.099 332.19 184.442C331.644 184.785 331.21 185.247 330.888 185.828C330.573 186.402 330.415 187.043 330.415 187.75C330.415 188.457 330.576 189.101 330.898 189.682C331.227 190.256 331.661 190.714 332.2 191.057C332.746 191.393 333.345 191.561 333.996 191.561ZM344.931 188.096C344.931 187.375 345.11 186.714 345.467 186.112C345.831 185.51 346.331 185.034 346.968 184.684C347.374 184.474 347.693 184.162 347.924 183.749C348.155 183.329 348.27 182.871 348.27 182.374C348.27 181.891 348.151 181.453 347.913 181.061C347.682 180.669 347.367 180.358 346.968 180.127C346.576 179.896 346.142 179.78 345.666 179.78C345.19 179.78 344.753 179.896 344.354 180.127C343.962 180.358 343.65 180.669 343.419 181.061C343.188 181.453 343.073 181.891 343.073 182.374H341.309C341.309 181.569 341.505 180.837 341.897 180.179C342.289 179.521 342.814 178.996 343.472 178.604C344.137 178.212 344.868 178.016 345.666 178.016C346.471 178.016 347.203 178.212 347.861 178.604C348.526 178.996 349.054 179.521 349.446 180.179C349.838 180.837 350.034 181.569 350.034 182.374C350.034 183.193 349.835 183.949 349.436 184.642C349.037 185.335 348.491 185.87 347.798 186.248C347.455 186.43 347.185 186.686 346.989 187.015C346.793 187.337 346.695 187.697 346.695 188.096H344.931ZM345.813 193.273C345.54 193.273 345.309 193.179 345.12 192.989C344.931 192.793 344.837 192.562 344.837 192.296C344.837 192.03 344.931 191.806 345.12 191.624C345.309 191.435 345.54 191.341 345.813 191.341C346.079 191.341 346.307 191.435 346.496 191.624C346.685 191.806 346.779 192.03 346.779 192.296C346.779 192.562 346.685 192.793 346.496 192.989C346.307 193.179 346.079 193.273 345.813 193.273Z" fill="#6B6B6B"/>
<defs>
<filter id="filter0_i_987_1194" x="60" y="46.5312" width="389.775" height="104.471" filterUnits="userSpaceOnUse" color-interpolation-filters="sRGB">
<feFlood flood-opacity="0" result="BackgroundImageFix"/>
<feBlend mode="normal" in="SourceGraphic" in2="BackgroundImageFix" result="shape"/>
<feColorMatrix in="SourceAlpha" type="matrix" values="0 0 0 0 0 0 0 0 0 0 0 0 0 0 0 0 0 0 127 0" result="hardAlpha"/>
<feOffset/>
<feGaussianBlur stdDeviation="2"/>
<feComposite in2="hardAlpha" operator="arithmetic" k2="-1" k3="1"/>
<feColorMatrix type="matrix" values="0 0 0 0 1 0 0 0 0 1 0 0 0 0 1 0 0 0 0.66 0"/>
<feBlend mode="normal" in2="shape" result="effect1_innerShadow_987_1194"/>
</filter>
<filter id="filter1_ddi_987_1194" x="0" y="0" width="509.775" height="224.471" filterUnits="userSpaceOnUse" color-interpolation-filters="sRGB">
<feFlood flood-opacity="0" result="BackgroundImageFix"/>
<feColorMatrix in="SourceAlpha" type="matrix" values="0 0 0 0 0 0 0 0 0 0 0 0 0 0 0 0 0 0 127 0" result="hardAlpha"/>
<feOffset dy="10"/>
<feGaussianBlur stdDeviation="17.25"/>
<feComposite in2="hardAlpha" operator="out"/>
<feColorMatrix type="matrix" values="0 0 0 0 0.0901961 0 0 0 0 1 0 0 0 0 0.564706 0 0 0 0.29 0"/>
<feBlend mode="normal" in2="BackgroundImageFix" result="effect1_dropShadow_987_1194"/>
<feColorMatrix in="SourceAlpha" type="matrix" values="0 0 0 0 0 0 0 0 0 0 0 0 0 0 0 0 0 0 127 0" result="hardAlpha"/>
<feOffset dy="20"/>
<feGaussianBlur stdDeviation="30"/>
<feComposite in2="hardAlpha" operator="out"/>
<feColorMatrix type="matrix" values="0 0 0 0 0.0901961 0 0 0 0 1 0 0 0 0 0.564706 0 0 0 0.1 0"/>
<feBlend mode="normal" in2="effect1_dropShadow_987_1194" result="effect2_dropShadow_987_1194"/>
<feBlend mode="normal" in="SourceGraphic" in2="effect2_dropShadow_987_1194" result="shape"/>
<feColorMatrix in="SourceAlpha" type="matrix" values="0 0 0 0 0 0 0 0 0 0 0 0 0 0 0 0 0 0 127 0" result="hardAlpha"/>
<feOffset/>
<feGaussianBlur stdDeviation="5"/>
<feComposite in2="hardAlpha" operator="arithmetic" k2="-1" k3="1"/>
<feColorMatrix type="matrix" values="0 0 0 0 1 0 0 0 0 1 0 0 0 0 1 0 0 0 1 0"/>
<feBlend mode="normal" in2="shape" result="effect3_innerShadow_987_1194"/>
</filter>
<radialGradient id="paint0_radial_987_1194" cx="0" cy="0" r="1" gradientUnits="userSpaceOnUse" gradientTransform="translate(191.771 160.796) rotate(-16.8054) scale(237.127 156.782)">
<stop stop-color="#024223" stop-opacity="0.81"/>
<stop offset="0.953677" stop-color="#03361E" stop-opacity="0"/>
</radialGradient>
<radialGradient id="paint1_radial_987_1194" cx="0" cy="0" r="1" gradientUnits="userSpaceOnUse" gradientTransform="translate(138.619 22.8621) rotate(104.204) scale(112.817 323.724)">
<stop stop-color="#068749"/>
<stop offset="1" stop-color="#08B160" stop-opacity="0.18"/>
</radialGradient>
<radialGradient id="paint2_radial_987_1194" cx="0" cy="0" r="1" gradientUnits="userSpaceOnUse" gradientTransform="translate(469.707 30.2077) rotate(163.573) scale(427.143 198.299)">
<stop offset="0.196645" stop-color="#08683A" stop-opacity="0.5"/>
<stop offset="0.710624" stop-color="#07FF89" stop-opacity="0.06"/>
</radialGradient>
<radialGradient id="paint3_radial_987_1194" cx="0" cy="0" r="1" gradientUnits="userSpaceOnUse" gradientTransform="translate(254.888 64.4871) rotate(90) scale(86.5147 429.639)">
<stop stop-color="white" stop-opacity="0.49"/>
<stop offset="1" stop-color="white" stop-opacity="0.19"/>
</radialGradient>
<radialGradient id="paint4_radial_987_1194" cx="0" cy="0" r="1" gradientUnits="userSpaceOnUse" gradientTransform="translate(157.444 144.471) rotate(-12.6733) scale(267.852 172.164)">
<stop stop-color="#16CC74" stop-opacity="0.81"/>
<stop offset="0.953677" stop-color="#00D971" stop-opacity="0"/>
</radialGradient>
<radialGradient id="paint5_radial_987_1194" cx="0" cy="0" r="1" gradientUnits="userSpaceOnUse" gradientTransform="translate(138.619 16.3309) rotate(104.204) scale(112.817 323.724)">
<stop stop-color="#068749"/>
<stop offset="1" stop-color="#08B160" stop-opacity="0.18"/>
</radialGradient>
<radialGradient id="paint6_radial_987_1194" cx="0" cy="0" r="1" gradientUnits="userSpaceOnUse" gradientTransform="translate(469.707 23.6765) rotate(163.573) scale(427.143 198.299)">
<stop offset="0.196645" stop-color="#00924C"/>
<stop offset="0.772092" stop-color="#07BF67" stop-opacity="0.06"/>
</radialGradient>
<radialGradient id="paint7_radial_987_1194" cx="0" cy="0" r="1" gradientUnits="userSpaceOnUse" gradientTransform="translate(254.888 57.9559) rotate(90) scale(86.5147 429.639)">
<stop stop-color="white" stop-opacity="0.49"/>
<stop offset="1" stop-color="white" stop-opacity="0.19"/>
</radialGradient>
</defs>
</svg>
